<svg xmlns="http://www.w3.org/2000/svg" width="32" height="32" viewBox="0 0 32 32">
  <rect width="32" height="32" rx="6" fill="#1a1a2e"/>
  <!-- Brain -->
  <g transform="translate(5.5, 1) scale(0.875)" stroke="#4A3F82" stroke-width="2" stroke-linecap="round" stroke-linejoin="round" fill="none">
    <path d="M12 5a3 3 0 1 0-5.997.125 4 4 0 0 0-2.526 5.77 4 4 0 0 0 .556 6.588A4 4 0 1 0 12 18Z"/>
    <path d="M12 5a3 3 0 1 1 5.997.125 4 4 0 0 1 2.526 5.77 4 4 0 0 1-.556 6.588A4 4 0 1 1 12 18Z"/>
  </g>
  <!-- Simplified poo - closer to brain -->
  <path d="M16 17 Q13 17.5 12.5 20 Q11.5 22.5 13 24 Q11.5 24.5 11 26.5 Q11 29 16 29 Q21 29 21 26.5 Q20.5 24.5 19 24 Q20.5 22.5 19.5 20 Q19 17.5 16 17Z"
        fill="#4ECDC4" stroke="#4A3F82" stroke-width="1"/>
</svg>
