<svg xmlns="http://www.w3.org/2000/svg" width="16" height="16" viewBox="0 0 16 16">
  <rect width="16" height="16" rx="3" fill="#1a1a2e"/>
  <!-- Brain - simplified for 16px -->
  <g transform="translate(2.75, 0.5) scale(0.44)" stroke="#4A3F82" stroke-width="2" stroke-linecap="round" stroke-linejoin="round" fill="none">
    <path d="M12 5a3 3 0 1 0-5.997.125 4 4 0 0 0-2.526 5.77 4 4 0 0 0 .556 6.588A4 4 0 1 0 12 18Z"/>
    <path d="M12 5a3 3 0 1 1 5.997.125 4 4 0 0 1 2.526 5.77 4 4 0 0 1-.556 6.588A4 4 0 1 1 12 18Z"/>
  </g>
  <!-- Simplified poo for 16px -->
  <path d="M8 9.5 Q6.5 9.75 6.25 11 Q5.75 12.25 6.5 13 Q5.75 13.25 5.5 14.25 Q5.5 15.5 8 15.5 Q10.5 15.5 10.5 14.25 Q10.25 13.25 9.5 13 Q10.25 12.25 9.75 11 Q9.5 9.75 8 9.5Z"
        fill="#4ECDC4" stroke="#4A3F82" stroke-width="0.5"/>
</svg>
