<svg xmlns="http://www.w3.org/2000/svg" width="192" height="192" viewBox="0 0 192 192">
  <rect width="192" height="192" rx="24" fill="#1a1a2e"/>
  <!-- Brain -->
  <g transform="translate(48, 15) scale(4)" stroke="#4A3F82" stroke-width="2" stroke-linecap="round" stroke-linejoin="round" fill="none">
    <path d="M12 5a3 3 0 1 0-5.997.125 4 4 0 0 0-2.526 5.77 4 4 0 0 0 .556 6.588A4 4 0 1 0 12 18Z"/>
    <path d="M12 5a3 3 0 1 1 5.997.125 4 4 0 0 1 2.526 5.77 4 4 0 0 1-.556 6.588A4 4 0 1 1 12 18Z"/>
  </g>
  <!-- Classic swirl poo -->
  <path d="M96 105
           Q82 105 78 117
           Q72 129 80 140
           Q70 142 67 155
           Q62 168 78 177
           Q68 180 64 193
           Q64 210 96 210
           Q128 210 128 193
           Q124 180 114 177
           Q130 168 125 155
           Q122 142 112 140
           Q120 129 114 117
           Q110 105 96 105Z"
        fill="#4ECDC4" stroke="#4A3F82" stroke-width="3.75"/>
</svg>
