<svg xmlns="http://www.w3.org/2000/svg" width="512" height="512" viewBox="0 0 512 512">
  <!-- Brain -->
  <g transform="translate(128, 40) scale(10.67)" stroke="#4A3F82" stroke-width="2" stroke-linecap="round" stroke-linejoin="round" fill="none">
    <path d="M12 5a3 3 0 1 0-5.997.125 4 4 0 0 0-2.526 5.77 4 4 0 0 0 .556 6.588A4 4 0 1 0 12 18Z"/>
    <path d="M12 5a3 3 0 1 1 5.997.125 4 4 0 0 1 2.526 5.77 4 4 0 0 1-.556 6.588A4 4 0 1 1 12 18Z"/>
  </g>
  <!-- Classic swirl poo - moved up closer to brain -->
  <path d="M256 245 
           Q220 245 210 275 
           Q195 305 215 335
           Q190 340 180 375
           Q170 410 210 435
           Q185 440 175 475
           Q175 520 256 520
           Q337 520 337 475
           Q327 440 302 435
           Q342 410 332 375
           Q322 340 297 335
           Q317 305 302 275
           Q292 245 256 245Z"
        fill="#4ECDC4" stroke="#4A3F82" stroke-width="10"/>
</svg>
