<svg xmlns="http://www.w3.org/2000/svg" width="512" height="512" viewBox="0 0 512 512">
  <rect width="512" height="512" rx="64" fill="#1a1a2e"/>
  <!-- Brain -->
  <g transform="translate(128, 40) scale(10.67)" stroke="#4A3F82" stroke-width="2" stroke-linecap="round" stroke-linejoin="round" fill="none">
    <path d="M12 5a3 3 0 1 0-5.997.125 4 4 0 0 0-2.526 5.77 4 4 0 0 0 .556 6.588A4 4 0 1 0 12 18Z"/>
    <path d="M12 5a3 3 0 1 1 5.997.125 4 4 0 0 1 2.526 5.77 4 4 0 0 1-.556 6.588A4 4 0 1 1 12 18Z"/>
  </g>
  <!-- Classic swirl poo -->
  <path d="M256 280
           Q220 280 210 310
           Q195 340 215 370
           Q190 375 180 410
           Q170 445 210 470
           Q185 475 175 510
           Q175 555 256 555
           Q337 555 337 510
           Q327 475 302 470
           Q342 445 332 410
           Q322 375 297 370
           Q317 340 302 310
           Q292 280 256 280Z"
        fill="#4ECDC4" stroke="#4A3F82" stroke-width="10"/>
</svg>
