<svg xmlns="http://www.w3.org/2000/svg" width="400" height="100" viewBox="0 0 400 100">
  <rect width="400" height="100" fill="#1a1a2e"/>
  <!-- Brain -->
  <g transform="translate(10, 5) scale(2)" stroke="#4A3F82" stroke-width="2" stroke-linecap="round" stroke-linejoin="round" fill="none">
    <path d="M12 5a3 3 0 1 0-5.997.125 4 4 0 0 0-2.526 5.77 4 4 0 0 0 .556 6.588A4 4 0 1 0 12 18Z"/>
    <path d="M12 5a3 3 0 1 1 5.997.125 4 4 0 0 1 2.526 5.77 4 4 0 0 1-.556 6.588A4 4 0 1 1 12 18Z"/>
  </g>
  <!-- Classic swirl poo - closer to brain -->
  <path d="M34 46 
           Q28 46 26 52 
           Q24 58 28 63
           Q24 64 22 70
           Q20 76 27 80
           Q24 81 22 86
           Q22 93 34 93
           Q46 93 46 86
           Q44 81 41 80
           Q48 76 46 70
           Q44 64 40 63
           Q44 58 42 52
           Q40 46 34 46Z"
        fill="#4ECDC4" stroke="#4A3F82" stroke-width="2"/>
  <!-- Text -->
  <text x="70" y="58" font-family="system-ui, -apple-system, BlinkMacSystemFont, 'Segoe UI', Roboto, sans-serif" font-size="32" font-weight="600" fill="#ffffff">Brain Dumper</text>
</svg>
